<?xml version="1.0" standalone="no"?>
<!DOCTYPE svg PUBLIC "-//W3C//DTD SVG 20010904//EN"
 "http://www.w3.org/TR/2001/REC-SVG-20010904/DTD/svg10.dtd">
<svg version="1.0" xmlns="http://www.w3.org/2000/svg"
 width="372.000000pt" height="103.000000pt" viewBox="0 0 372.000000 103.000000"
 preserveAspectRatio="xMidYMid meet">

<g transform="translate(0.000000,103.000000) scale(0.100000,-0.100000)"
fill="#000000" stroke="none">
<path d="M422 791 c-70 -24 -118 -65 -156 -131 l-31 -55 0 -180 0 -180 43 -3
42 -3 0 158 c0 146 2 162 25 210 26 57 62 86 133 105 41 12 42 13 42 55 0 38
-3 43 -22 43 -13 -1 -47 -9 -76 -19z"/>
<path d="M1276 796 c-55 -21 -106 -65 -133 -116 -22 -41 -23 -54 -23 -242 l0
-199 43 3 42 3 5 190 c5 206 10 223 68 261 58 38 159 13 195 -49 8 -15 14 -87
17 -212 l5 -190 43 -3 42 -3 0 196 c0 213 -6 244 -58 298 -60 64 -169 92 -246
63z"/>
<path d="M2336 800 c-69 -21 -110 -88 -104 -172 4 -47 10 -64 34 -89 47 -50
74 -59 173 -59 106 0 117 -3 137 -42 12 -24 13 -36 4 -58 -17 -42 -48 -50
-186 -50 l-125 0 3 -43 3 -42 145 0 c134 0 148 2 182 23 41 25 78 91 78 138 0
49 -40 116 -85 141 -33 19 -56 23 -131 23 -77 0 -95 3 -118 21 -34 27 -35 71
-1 104 23 24 29 25 160 25 l135 0 0 45 0 45 -137 -1 c-76 0 -151 -5 -167 -9z"/>
<path d="M2727 803 c-13 -12 -8 -336 6 -389 36 -138 187 -212 314 -154 48 21
58 15 48 -33 -12 -53 -50 -95 -103 -110 -45 -14 -47 -15 -50 -55 -3 -41 -3
-42 30 -42 39 0 114 32 146 63 13 12 34 40 45 62 21 38 22 52 22 350 l0 310
-40 0 -40 0 -5 -185 c-6 -208 -14 -236 -80 -271 -45 -24 -81 -24 -130 1 -64
33 -70 54 -70 258 0 125 -4 182 -12 190 -13 13 -70 17 -81 5z"/>
<path d="M3334 791 c-62 -28 -89 -73 -89 -148 0 -66 16 -98 69 -137 22 -17 47
-22 138 -26 100 -5 111 -7 129 -29 24 -30 24 -62 0 -92 -18 -23 -26 -24 -155
-27 l-136 -4 0 -44 0 -44 133 0 c107 0 140 4 173 19 53 24 86 71 92 130 6 61
-16 111 -64 147 -35 27 -46 29 -147 34 -99 5 -110 7 -128 29 -26 32 -24 67 6
96 23 24 29 25 165 25 l141 0 -3 43 -3 42 -140 2 c-119 2 -146 0 -181 -16z"/>
<path d="M684 781 c-104 -47 -164 -142 -164 -258 0 -86 31 -155 97 -213 74
-65 163 -84 260 -55 48 14 143 77 143 94 0 5 -16 18 -35 30 l-35 20 -51 -32
c-42 -25 -61 -31 -104 -31 -52 1 -114 26 -122 50 -3 8 343 214 381 227 17 6
-4 57 -40 97 -56 62 -123 90 -213 90 -52 0 -89 -6 -117 -19z m207 -93 c22 -12
38 -26 36 -31 -4 -12 -292 -177 -308 -177 -21 0 -3 108 25 151 51 77 165 103
247 57z"/>
</g>
</svg>
